 <svg width="12" height="12" viewBox="0 0 12 12" fill="none" xmlns="http://www.w3.org/2000/svg">
<path d="M6.39839 5.99299L9.58589 9.18049C9.8062 9.40081 9.8062 9.75706 9.58589 9.97503L9.0562 10.5047C8.83589 10.725 8.47964 10.725 8.26167 10.5047L5.99995 8.24768L3.74058 10.5071C3.52026 10.7274 3.16401 10.7274 2.94604 10.5071L2.41401 9.97737C2.1937 9.75706 2.1937 9.40081 2.41401 9.18284L5.60151 5.99534C5.82183 5.77268 6.17808 5.77268 6.39839 5.99299ZM5.60151 1.49299L2.41401 4.68049C2.1937 4.90081 2.1937 5.25706 2.41401 5.47502L2.9437 6.00471C3.16401 6.22502 3.52026 6.22502 3.73823 6.00471L5.99761 3.74534L8.25698 6.00471C8.47729 6.22502 8.83354 6.22502 9.05151 6.00471L9.5812 5.47502C9.80151 5.25471 9.80151 4.89846 9.5812 4.68049L6.3937 1.49299C6.17808 1.27268 5.82183 1.27268 5.60151 1.49299Z" fill="white"/>
</svg>
