    <svg width="16" height="16" viewBox="0 0 16 16" fill="none" xmlns="http://www.w3.org/2000/svg">
<path d="M7.69622 10.0443L7.69628 10.0444C7.77575 10.12 7.88872 10.1666 8.01153 10.1667L7.69622 10.0443ZM7.69622 10.0443L3.96289 6.49606L3.96294 6.496M7.69622 10.0443L3.96294 6.496M3.96294 6.496L3.95655 6.49014M3.96294 6.496L3.95655 6.49014M3.95655 6.49014C3.91618 6.45307 3.88547 6.41014 3.86489 6.36461C3.84435 6.31915 3.83395 6.27127 3.83351 6.22355C3.83307 6.17583 3.8426 6.12787 3.86225 6.08221C3.88194 6.03647 3.91176 5.99318 3.95132 5.95558C3.99094 5.91793 4.03944 5.88687 4.09462 5.86541C4.14983 5.84394 4.2098 5.83286 4.27081 5.83336C4.33182 5.83386 4.39151 5.84593 4.44622 5.86827C4.50088 5.89059 4.54867 5.92237 4.58746 5.96054L4.58741 5.96059M3.95655 6.49014L4.58741 5.96059M4.58741 5.96059L4.59371 5.96658M4.58741 5.96059L4.59371 5.96658M4.59371 5.96658L7.66717 8.88771L8.01163 9.21509M4.59371 5.96658L8.01163 9.21509M8.01163 9.21509L8.35609 8.88771M8.01163 9.21509L8.35609 8.88771M8.35609 8.88771L11.4258 5.97015C11.5059 5.89787 11.6173 5.85417 11.7375 5.85516C11.8589 5.85616 11.9704 5.90266 12.049 5.97738C12.1268 6.05133 12.166 6.14589 12.1668 6.23908C12.1677 6.33123 12.1311 6.42509 12.0566 6.49964L8.32704 10.0443L8.32699 10.0444M8.35609 8.88771L8.32699 10.0444M8.32699 10.0444C8.24751 10.12 8.13454 10.1666 8.01173 10.1667L8.32699 10.0444Z" fill="#1F2A37" stroke="#E5E7EB"/>
</svg>
