<svg width="16" height="16" viewBox="0 0 16 16" fill="none" xmlns="http://www.w3.org/2000/svg">
<path d="M11.4204 10.0336L11.4205 10.0337C11.4998 10.1092 11.6124 10.1557 11.7347 10.1558L11.4204 10.0336ZM11.4204 10.0336L8.35067 7.11241L8.00599 6.78441M11.4204 10.0336L8.00599 6.78441M8.00599 6.78441L7.66131 7.11241M8.00599 6.78441L7.66131 7.11241M7.66131 7.11241L4.59155 10.0336L4.5915 10.0336M7.66131 7.11241L4.5915 10.0336M4.5915 10.0336L4.58531 10.0397M4.5915 10.0336L4.58531 10.0397M4.58531 10.0397C4.54659 10.0778 4.49893 10.1096 4.44444 10.1318C4.38993 10.1541 4.33045 10.1662 4.26967 10.1667C4.2089 10.1672 4.14914 10.1561 4.09411 10.1347C4.03912 10.1133 3.99075 10.0823 3.95122 10.0446C3.91174 10.0071 3.88194 9.96378 3.86226 9.918C3.84261 9.87229 3.83307 9.82425 3.83351 9.77643C3.83395 9.72861 3.84436 9.68066 3.8649 9.63516C3.88547 9.58958 3.91615 9.54665 3.95644 9.50962L3.95649 9.50968M4.58531 10.0397L3.95649 9.50968M3.95649 9.50968L3.96277 9.5037M3.95649 9.50968L3.96277 9.5037M3.96277 9.5037L7.69155 5.95533M3.96277 9.5037L7.69155 5.95533M7.69155 5.95533C7.77091 5.87983 7.88361 5.83334 8.00599 5.83334C8.12837 5.83334 8.24107 5.87983 8.32043 5.95533L12.0492 9.50364C12.1079 9.55953 12.1448 9.62765 12.1595 9.69793L12.6489 9.59566M7.69155 5.95533L12.6489 9.59566M12.6489 9.59566L12.1595 9.69793C12.1741 9.76799 12.1669 9.84091 12.1374 9.90859M12.6489 9.59566L12.1374 9.90859M12.1374 9.90859C12.1078 9.9766 12.0559 10.0388 11.9843 10.0843M12.1374 9.90859L11.9843 10.0843M11.9843 10.0843C11.9125 10.13 11.8257 10.1557 11.7349 10.1558L11.9843 10.0843Z" fill="#1F2A37" stroke="white"/>
</svg>
