<svg width="20" height="21" viewBox="0 0 20 21" fill="none" xmlns="http://www.w3.org/2000/svg">
<path d="M7.78925 16.3334C7.56997 16.3333 7.35563 16.2649 7.17332 16.1369C6.99101 16.0089 6.84892 15.8269 6.76501 15.614C6.6811 15.4011 6.65914 15.1669 6.70191 14.9409C6.74467 14.7149 6.85024 14.5073 7.00528 14.3443L10.6568 10.5072L7.00528 6.67006C6.89937 6.56257 6.81489 6.43399 6.75677 6.29183C6.69866 6.14967 6.66807 5.99677 6.66679 5.84205C6.66551 5.68733 6.69357 5.53389 6.74932 5.39069C6.80508 5.24748 6.88742 5.11738 6.99153 5.00798C7.09565 4.89857 7.21946 4.81205 7.35573 4.75346C7.49201 4.69487 7.63803 4.66539 7.78526 4.66673C7.9325 4.66808 8.07801 4.70022 8.21329 4.76129C8.34858 4.82236 8.47094 4.91113 8.57323 5.02242L13.0087 9.68336C13.2166 9.90187 13.3334 10.1982 13.3334 10.5072C13.3334 10.8162 13.2166 11.1125 13.0087 11.331L8.57323 15.9919C8.36532 16.2105 8.08332 16.3333 7.78925 16.3334Z" fill="#6B7280"/>
</svg>
