<svg width="18" height="17" viewBox="0 0 18 17" fill="none" xmlns="http://www.w3.org/2000/svg">
<path d="M17.099 7.91076L15.4302 6.24407L9.58973 0.410678C9.43326 0.254451 9.22108 0.166687 8.99984 0.166687C8.7786 0.166687 8.56641 0.254451 8.40995 0.410678L2.56944 6.24407L0.900718 7.91076C0.748733 8.06793 0.664634 8.27843 0.666535 8.49693C0.668436 8.71543 0.756185 8.92445 0.910882 9.07895C1.06558 9.23346 1.27485 9.3211 1.49361 9.323C1.71238 9.3249 1.92314 9.2409 2.0805 9.0891L2.32497 8.84494V15.1667C2.32497 15.6087 2.50078 16.0326 2.81372 16.3452C3.12667 16.6578 3.55111 16.8334 3.99369 16.8334H6.49676C6.71805 16.8334 6.93027 16.7456 7.08674 16.5893C7.24322 16.433 7.33112 16.221 7.33112 16V12.6666C7.33112 12.4456 7.41903 12.2337 7.5755 12.0774C7.73197 11.9211 7.94419 11.8333 8.16548 11.8333H9.8342C10.0555 11.8333 10.2677 11.9211 10.4242 12.0774C10.5807 12.2337 10.6686 12.4456 10.6686 12.6666V16C10.6686 16.221 10.7565 16.433 10.9129 16.5893C11.0694 16.7456 11.2816 16.8334 11.5029 16.8334H14.006C14.4486 16.8334 14.873 16.6578 15.186 16.3452C15.4989 16.0326 15.6747 15.6087 15.6747 15.1667V8.84494L15.9192 9.0891C16.0765 9.2409 16.2873 9.3249 16.5061 9.323C16.7248 9.3211 16.9341 9.23346 17.0888 9.07895C17.2435 8.92445 17.3312 8.71543 17.3331 8.49693C17.335 8.27843 17.2509 8.06793 17.099 7.91076Z" fill="#374151"/>
</svg>
